# xmcd
#
# Track frame offsets:
#	150
#	16937
#	45883
#	61990
#	74702
#	94765
#	114634
#	132252
#	155710
#
# Disc length: 2460 seconds
#
# Revision: 4
# Processed by: cddbd v1.5.2PL0 Copyright (c) Steve Scherf et al.
# Submitted via: EasyCDDAExtractor 16.0.6.1
#
DISCID=77099a09
DTITLE=Poco - C-114 A Good Feelin' To Know
DYEAR=1900
DGENRE=Country
TTITLE0=And Settlin' Down
TTITLE1=Ride The Country
TTITLE2=I Can See Everything
TTITLE3=Go And Say Goodbye
TTITLE4=Keeper Of The Fire
TTITLE5=Early Times
TTITLE6=A Good Feelin' To Know
TTITLE7=Restrain
TTITLE8=Sweet Lovin'
EXTD=Epic
EXTT0=
EXTT1=
EXTT2=
EXTT3=
EXTT4=
EXTT5=
EXTT6=
EXTT7=
EXTT8=
PLAYORDER=
